<svg xmlns="http://www.w3.org/2000/svg" width="563.271" height="334.054" viewBox="0 0 563.271 334.054">
  <g id="rate-alert-chart" transform="translate(-110.087 -12.045)">
    <path id="Path_11619" data-name="Path 11619" d="M141.222,345.714l520.356-.657c10.605-.351,18.932-8.546,19.633-19.633l-.416-290.131c-.351-10.605-8.545-18.932-19.633-19.633L141.573,16.6c-10.605.351-18.932,8.546-19.633,19.633l.416,290.131c-.416,10.32,8.546,18.953,18.866,19.348Z" transform="translate(-9.853 -1.615)" fill="#fff" stroke="#f9aa4e" stroke-width="4"/>
    <circle id="Ellipse_398" data-name="Ellipse 398" cx="9.855" cy="9.855" r="9.855" transform="translate(194.92 127.647)" fill="#e6ebf5"/>
    <circle id="Ellipse_399" data-name="Ellipse 399" cx="9.855" cy="9.855" r="9.855" transform="translate(195.083 165.826)" fill="#e6ebf5"/>
    <circle id="Ellipse_400" data-name="Ellipse 400" cx="9.855" cy="9.855" r="9.855" transform="translate(195.267 204.006)" fill="#e6ebf5"/>
    <circle id="Ellipse_401" data-name="Ellipse 401" cx="9.855" cy="9.855" r="9.855" transform="translate(195.43 242.185)" fill="#e6ebf5"/>
    <path id="Path_11620" data-name="Path 11620" d="M515.386,72.233l-332.517.081c-.713-.265-1.425-.529-1.161-1.242s.529-1.425,1.242-1.161l332.517-.081c.713.265,1.425.529,1.161,1.242C517.076,72.05,516.364,71.785,515.386,72.233Zm.183,38.179-332.517.081c-.713-.265-1.425-.529-1.161-1.242s.529-1.425,1.242-1.161l332.517-.081c.713.265,1.425.529,1.161,1.242S516.547,109.964,515.57,110.412Zm.163,38.179-332.517.081c-.713-.265-1.425-.529-1.161-1.242s.529-1.425,1.242-1.161l332.517-.081c.713.265,1.425.529,1.161,1.242s-.529,1.425-1.242,1.161Zm.183,38.179-332.517.081c-.713-.265-1.425-.529-1.161-1.242s.529-1.425,1.242-1.161L516,184.368c.713.265,1.425.529,1.161,1.242S516.628,187.036,515.916,186.771Z" transform="translate(71.794 66.186)" fill="#e6ebf5"/>
    <path id="Path_11621" data-name="Path 11621" d="M201.259,211.07l-9.652-.081c-3.115-.367-5.681-2.138-6.027-5.518V114.777c.367-3.115,2.138-5.681,5.518-6.027l9.652.081c3.115.367,5.681,2.138,6.027,5.518l.02,90.694a7.222,7.222,0,0,1-5.539,6.027Zm68.173,0-9.652-.081c-3.115-.367-5.681-2.138-6.027-5.518l-.183-90.959c.366-3.115,2.138-5.681,5.518-6.027l9.652.081c3.115.367,5.681,2.138,6.027,5.518l.183,90.959A7.2,7.2,0,0,1,269.432,211.07Zm-34.046,0-9.652-.081c-3.115-.367-5.681-2.138-6.027-5.518l-.183-113.7c.367-3.115,2.138-5.681,5.518-6.027l9.652.081c3.115.367,5.681,2.138,6.027,5.518l.183,113.7a7.2,7.2,0,0,1-5.518,6.027Zm102.178-.041-9.652-.081c-3.115-.367-5.681-2.138-6.027-5.518l-.367-83.608c.367-3.115,2.138-5.681,5.518-6.027l9.652.081c3.115.367,5.681,2.138,6.027,5.518L343.083,205c.346,3.38-2.4,6.394-5.518,6.027Zm-34.025,0-9.652-.081c-3.116-.367-5.681-2.138-6.027-5.518l-.367-76.033c.367-3.115,2.138-5.681,5.518-6.027l9.652.081c3.115.367,5.681,2.138,6.027,5.518L309.057,205c.346,3.38-2.423,6.394-5.518,6.027Zm136.143,0-9.652-.081c-3.115-.367-5.681-2.138-6.027-5.518l-.366-76.033c.366-3.115,2.138-5.681,5.518-6.027l9.652.081c3.115.367,5.681,2.138,6.027,5.518L445.2,205c.346,3.38-2.423,6.394-5.518,6.027Zm-68.071,0-9.652-.081c-3.115-.367-5.681-2.138-6.027-5.518l-.367-111.1c.367-3.115,2.138-5.681,5.518-6.027l9.652.081c3.115.367,5.681,2.138,6.027,5.518l.367,111.1c.346,3.38-2.423,6.394-5.518,6.027Zm33.9,0-9.652-.081c-3.115-.367-5.681-2.138-6.027-5.518l-.1-99.674c.366-3.115,2.138-5.681,5.518-6.027l9.652.081c3.115.367,5.681,2.138,6.027,5.518l.1,99.674c.081,4.093-2.4,6.394-5.518,6.027Zm68.071,0-9.652-.081c-3.115-.367-5.681-2.138-6.027-5.518l-.1-105.64c.367-3.115,2.138-5.681,5.518-6.027l9.652.081c3.115.367,5.681,2.138,6.027,5.518L479.1,205C479.185,209.1,476.7,211.4,473.585,211.029Zm34.046,0-9.652-.081c-3.115-.367-5.681-2.138-6.027-5.518l-.1-105.64c.367-3.115,2.138-5.681,5.518-6.027l9.652.081c3.116.367,5.681,2.138,6.027,5.518l.1,105.64C513.23,209.1,510.726,211.4,507.631,211.029Z" transform="translate(75.864 82.672)" fill="#393939"/>
    <path id="Path_11622" data-name="Path 11622" d="M184.02,97.72,228.8,53.86,299.9,135.9l68.071-41.01,67.847,38.159,68.3-66.788" transform="translate(74.248 49.637)" fill="none" stroke="#f9aa4e" stroke-linecap="round" stroke-linejoin="round" stroke-miterlimit="10" stroke-width="2.794"/>
    <path id="Path_11623" data-name="Path 11623" d="M343.78,64.395l-5.64-6.638L345.776,57l7.615-.753-2,7.392-2,7.412Z" transform="translate(233.952 52.114)" fill="#f9aa4e"/>
    <circle id="Ellipse_404" data-name="Ellipse 404" cx="1.038" cy="1.038" r="1.038" transform="translate(494.776 75.458)" fill="#fff"/>
    <g id="Group_7176" data-name="Group 7176" transform="translate(314.775 45.403)">
      <circle id="Ellipse_402" data-name="Ellipse 402" cx="30.055" cy="30.055" r="30.055" transform="translate(1.527 1.919)" fill="#e4e4e4"/>
      <circle id="Ellipse_403" data-name="Ellipse 403" cx="30.055" cy="30.055" r="30.055" fill="#f5f6f6"/>
      <g id="bell-Notification" transform="translate(15.881 14.591)">
        <path id="Path_11628" data-name="Path 11628" d="M139.7,451.866A4.84,4.84,0,0,0,144.434,448h-9.469A4.84,4.84,0,0,0,139.7,451.866Zm0,0" transform="translate(-126.814 -420.939)" fill="#393939"/>
        <path id="Path_11629" data-name="Path 11629" d="M21.922,55.552h-.016a9.031,9.031,0,0,1-9.02-9.02,8.94,8.94,0,0,1,.862-3.822c-.284-.027-.571-.044-.862-.044a9.02,9.02,0,0,0-9.02,9.02V55.28A8.64,8.64,0,0,1,.788,61.895a2.255,2.255,0,0,0-.709,2.314A2.364,2.364,0,0,0,2.4,65.863H23.369a2.362,2.362,0,0,0,2.356-1.787,2.259,2.259,0,0,0-.769-2.206,8.575,8.575,0,0,1-3.033-6.317Zm0,0" transform="translate(0 -40.09)" fill="#393939"/>
        <path id="Path_11630" data-name="Path 11630" d="M268.9,6.443A6.443,6.443,0,1,1,262.455,0,6.443,6.443,0,0,1,268.9,6.443Zm0,0" transform="translate(-240.549)" fill="#b90000"/>
      </g>
    </g>
    <g id="Group_7175" data-name="Group 7175" transform="translate(344.46 110.332)">
      <path id="Path_11627" data-name="Path 11627" d="M307.03,64.42V97.184" transform="translate(-307.03 -64.42)" fill="none" stroke="#3d6e72" stroke-linecap="round" stroke-linejoin="round" stroke-width="1.248" stroke-dasharray="4.017 4.017"/>
    </g>
  </g>
</svg>
